<svg width="44" height="44" viewBox="0 0 44 44" fill="none" xmlns="http://www.w3.org/2000/svg">
<path d="M13.2778 20.3182C14.1 17.2499 17.2539 14.096 20.3222 13.2738L39.4512 8.1474C42.5194 7.32513 44.3402 9.14588 43.5179 12.2142L38.3916 31.3431C37.5693 34.4114 34.4154 37.5653 31.3471 38.3876L12.2181 43.5139C9.14988 44.3362 7.32913 42.5154 8.15139 39.4472L13.2778 20.3182Z" fill="#9E77ED" style="fill:#9E77ED;fill:color(display-p3 0.6192 0.4655 0.9305);fill-opacity:1;"/>
<path d="M5.60882 12.6493C6.43108 9.58107 9.58498 6.42717 12.6533 5.60491L31.7822 0.47854C34.8505 -0.343725 36.6713 1.47702 35.849 4.54529L30.7226 23.6743C29.9004 26.7425 26.7465 29.8964 23.6782 30.7187L4.5492 35.8451C1.48093 36.6673 -0.339816 34.8466 0.482448 31.7783L5.60882 12.6493Z" fill="#6941C6" style="fill:#6941C6;fill:color(display-p3 0.4115 0.2542 0.7772);fill-opacity:1;"/>
</svg>
